REM DIRINDEX 1\5,1\2\6,1\2\7,1\3\8,1\3\9,1\4\10,1\4\11,1\4\12
REM DIRNAME folder01,folder02,folder03,folder04,folder05,folder06,folder07,folder08,folder09,folder10,folder11,folder12
TITLE ""
FILE "EJE_DB3000_5th_5C_24.mp3" MP3
  TRACK 01 AUDIO
    TITLE "0:"
    INDEX 01 00:00:00
  TRACK 02 AUDIO
    TITLE "10:cjc026_11061"
    INDEX 01 00:00:05
  TRACK 03 AUDIO
    TITLE "0:"
    INDEX 01 00:00:70
  TRACK 04 AUDIO
    TITLE "11:cjc026_11062"
    INDEX 01 00:01:21
  TRACK 05 AUDIO
    TITLE "0:"
    INDEX 01 00:02:42
  TRACK 06 AUDIO
    TITLE "12:cjc026_11063"
    INDEX 01 00:02:67
  TRACK 07 AUDIO
    TITLE "0:"
    INDEX 01 00:03:57
  TRACK 08 AUDIO
    TITLE "10:cjc026_11064"
    INDEX 01 00:04:07
  TRACK 09 AUDIO
    TITLE "0:"
    INDEX 01 00:05:01
  TRACK 10 AUDIO
    TITLE "11:cjc026_11065"
    INDEX 01 00:05:26
  TRACK 11 AUDIO
    TITLE "0:"
    INDEX 01 00:06:28
  TRACK 12 AUDIO
    TITLE "12:cjc026_11066"
    INDEX 01 00:06:53
  TRACK 13 AUDIO
    TITLE "0:"
    INDEX 01 00:07:47
  TRACK 14 AUDIO
    TITLE "10:cjc026_11067"
    INDEX 01 00:07:72
  TRACK 15 AUDIO
    TITLE "0:"
    INDEX 01 00:09:57
  TRACK 16 AUDIO
    TITLE "11:cjc026_11068"
    INDEX 01 00:10:08
  TRACK 17 AUDIO
    TITLE "0:"
    INDEX 01 00:11:21
  TRACK 18 AUDIO
    TITLE "12:cjc026_11069"
    INDEX 01 00:11:46
  TRACK 19 AUDIO
    TITLE "0:"
    INDEX 01 00:13:33
  TRACK 20 AUDIO
    TITLE "10:cjc026_11070"
    INDEX 01 00:13:57
  TRACK 21 AUDIO
    TITLE "0:"
    INDEX 01 00:14:56
  TRACK 22 AUDIO
    TITLE "11:cjc026_11071"
    INDEX 01 00:15:07
  TRACK 23 AUDIO
    TITLE "0:"
    INDEX 01 00:16:57
  TRACK 24 AUDIO
    TITLE "12:cjc026_11072"
    INDEX 01 00:17:08
  TRACK 25 AUDIO
    TITLE "0:"
    INDEX 01 00:18:07
  TRACK 26 AUDIO
    TITLE "10:cjc026_11073"
    INDEX 01 00:18:33
  TRACK 27 AUDIO
    TITLE "0:"
    INDEX 01 00:19:26
  TRACK 28 AUDIO
    TITLE "11:cjc026_11074"
    INDEX 01 00:19:52
  TRACK 29 AUDIO
    TITLE "0:"
    INDEX 01 00:20:53
  TRACK 30 AUDIO
    TITLE "12:cjc026_11075"
    INDEX 01 00:21:02
  TRACK 31 AUDIO
    TITLE "0:"
    INDEX 01 00:21:70
  TRACK 32 AUDIO
    TITLE "10:cjc026_11076"
    INDEX 01 00:22:21
  TRACK 33 AUDIO
    TITLE "0:"
    INDEX 01 00:23:18
  TRACK 34 AUDIO
    TITLE "11:cjc026_11077"
    INDEX 01 00:23:46
  TRACK 35 AUDIO
    TITLE "0:"
    INDEX 01 00:24:51
  TRACK 36 AUDIO
    TITLE "12:cjc026_11078"
    INDEX 01 00:25:01
  TRACK 37 AUDIO
    TITLE "0:"
    INDEX 01 00:26:01
  TRACK 38 AUDIO
    TITLE "10:cjc026_11079"
    INDEX 01 00:26:26
  TRACK 39 AUDIO
    TITLE "0:"
    INDEX 01 00:27:28
  TRACK 40 AUDIO
    TITLE "11:cjc026_11080"
    INDEX 01 00:27:55
  TRACK 41 AUDIO
    TITLE "0:"
    INDEX 01 00:28:64
  TRACK 42 AUDIO
    TITLE "12:cjc026_11081"
    INDEX 01 00:29:15
  TRACK 43 AUDIO
    TITLE "0:"
    INDEX 01 00:30:16
  TRACK 44 AUDIO
    TITLE "10:cjc026_11082"
    INDEX 01 00:30:42
  TRACK 45 AUDIO
    TITLE "0:"
    INDEX 01 00:31:35
  TRACK 46 AUDIO
    TITLE "11:cjc026_11083"
    INDEX 01 00:31:65
  TRACK 47 AUDIO
    TITLE "0:"
    INDEX 01 00:32:62
  TRACK 48 AUDIO
    TITLE "12:cjc026_11084"
    INDEX 01 00:33:13
  TRACK 49 AUDIO
    TITLE "0:"
    INDEX 01 00:34:08
  TRACK 50 AUDIO
    TITLE "10:cjc026_11085"
    INDEX 01 00:34:36
  TRACK 51 AUDIO
    TITLE "0:"
    INDEX 01 00:36:64
  TRACK 52 AUDIO
    TITLE "11:cjc026_11086"
    INDEX 01 00:37:16
  TRACK 53 AUDIO
    TITLE "0:"
    INDEX 01 00:39:00
  TRACK 54 AUDIO
    TITLE "12:cjc026_11087"
    INDEX 01 00:39:27
  TRACK 55 AUDIO
    TITLE "0:"
    INDEX 01 00:41:53
  TRACK 56 AUDIO
    TITLE "10:cjc026_11088"
    INDEX 01 00:42:06
  TRACK 57 AUDIO
    TITLE "0:"
    INDEX 01 00:44:38
  TRACK 58 AUDIO
    TITLE "11:cjc026_11089"
    INDEX 01 00:44:63
  TRACK 59 AUDIO
    TITLE "0:"
    INDEX 01 00:45:73
  TRACK 60 AUDIO
    TITLE "12:cjc026_11090"
    INDEX 01 00:46:25
  TRACK 61 AUDIO
    TITLE "0:"
    INDEX 01 00:48:55
  TRACK 62 AUDIO
    TITLE "10:cjc026_11091"
    INDEX 01 00:49:08
  TRACK 63 AUDIO
    TITLE "0:"
    INDEX 01 00:50:11
  TRACK 64 AUDIO
    TITLE "11:cjc026_11092"
    INDEX 01 00:50:39
  TRACK 65 AUDIO
    TITLE "0:"
    INDEX 01 00:51:38
  TRACK 66 AUDIO
    TITLE "12:cjc026_11093"
    INDEX 01 00:51:63
  TRACK 67 AUDIO
    TITLE "0:"
    INDEX 01 00:52:67
  TRACK 68 AUDIO
    TITLE "10:cjc026_11094"
    INDEX 01 00:53:23
  TRACK 69 AUDIO
    TITLE "0:"
    INDEX 01 00:54:36
  TRACK 70 AUDIO
    TITLE "11:cjc026_11095"
    INDEX 01 00:54:64
  TRACK 71 AUDIO
    TITLE "0:"
    INDEX 01 00:57:01
  TRACK 72 AUDIO
    TITLE "12:cjc026_11096"
    INDEX 01 00:57:29
  TRACK 73 AUDIO
    TITLE "0:"
    INDEX 01 00:58:42
  TRACK 74 AUDIO
    TITLE "10:cjc026_11097"
    INDEX 01 00:58:67
  TRACK 75 AUDIO
    TITLE "0:"
    INDEX 01 01:00:29
  TRACK 76 AUDIO
    TITLE "11:cjc026_11098"
    INDEX 01 01:00:57
  TRACK 77 AUDIO
    TITLE "0:"
    INDEX 01 01:02:65
  TRACK 78 AUDIO
    TITLE "12:cjc026_11099"
    INDEX 01 01:03:16
  TRACK 79 AUDIO
    TITLE "0:"
    INDEX 01 01:04:50
  TRACK 80 AUDIO
    TITLE "10:cjc026_11100"
    INDEX 01 01:05:01
  TRACK 81 AUDIO
    TITLE "0:"
    INDEX 01 01:06:38
  TRACK 82 AUDIO
    TITLE "11:cjc026_11101"
    INDEX 01 01:06:65
  TRACK 83 AUDIO
    TITLE "0:"
    INDEX 01 01:09:03
  TRACK 84 AUDIO
    TITLE "12:cjc026_11102"
    INDEX 01 01:09:26
  TRACK 85 AUDIO
    TITLE "0:"
    INDEX 01 01:10:63
  TRACK 86 AUDIO
    TITLE "10:cjc026_11103"
    INDEX 01 01:11:13
  TRACK 87 AUDIO
    TITLE "0:"
    INDEX 01 01:12:60
  TRACK 88 AUDIO
    TITLE "11:cjc026_11104"
    INDEX 01 01:13:10
  TRACK 89 AUDIO
    TITLE "0:"
    INDEX 01 01:15:19
  TRACK 90 AUDIO
    TITLE "12:cjc026_11105"
    INDEX 01 01:15:46
  TRACK 91 AUDIO
    TITLE "0:"
    INDEX 01 01:17:16
